<svg width="1440" height="768" viewBox="0 0 1440 768" fill="none" xmlns="http://www.w3.org/2000/svg">
<g clip-path="url(#clip0_4021_386)">
<g filter="url(#filter0_f_4021_386)">
<ellipse cx="664.985" cy="673.184" rx="664.985" ry="673.184" transform="matrix(0.621948 -0.783059 -0.783059 -0.621948 1622.83 1290.4)" fill="url(#paint0_linear_4021_386)"/>
</g>
<g filter="url(#filter1_f_4021_386)">
<ellipse cx="449.681" cy="454.849" rx="449.681" ry="454.849" transform="matrix(-1 0 0 1 1685.74 -718.524)" fill="#3B1FE7"/>
</g>
<g filter="url(#filter2_f_4021_386)">
<ellipse cx="367.337" cy="371.793" rx="367.337" ry="371.793" transform="matrix(-1 0 0 1 1814.42 -731)" fill="#FFC1DF"/>
</g>
<g filter="url(#filter3_f_4021_386)">
<path d="M658.633 653.535C518.225 303.215 740.059 -128.066 1375.14 -247.196C785.873 -6.79345 779.626 391.712 834.37 688.696L658.633 653.535Z" fill="white" fill-opacity="0.85"/>
</g>
<g filter="url(#filter4_f_4021_386)">
<path d="M516.566 488.432C361.606 272.29 440.937 -60.1339 855.532 -248.389C492.67 15.1587 555.366 288.923 642.739 482.961L516.566 488.432Z" fill="white" fill-opacity="0.85"/>
</g>
<g filter="url(#filter5_f_4021_386)">
<path d="M993.119 638.495C885.229 359.019 1065.68 18.9574 1570.96 -69.1546C1100.81 115.677 1091.81 431.912 1132.25 668.185L993.119 638.495Z" fill="url(#paint1_linear_4021_386)" fill-opacity="0.7"/>
</g>
<g filter="url(#filter6_f_4021_386)">
<path d="M1209.51 679.957C1165.3 383.661 1415.68 91.2414 1928.01 115.658C1428.83 193.301 1845.53 591.79 1833.37 831.19L1209.51 679.957Z" fill="white" fill-opacity="0.8"/>
</g>
<g filter="url(#filter7_f_4021_386)">
<ellipse cx="-144.271" cy="350.994" rx="664.985" ry="673.184" transform="rotate(-128.459 -144.271 350.994)" fill="url(#paint2_linear_4021_386)"/>
</g>
<g filter="url(#filter8_f_4021_386)">
<ellipse cx="128.941" cy="-263.674" rx="449.681" ry="454.849" fill="#3B1FE7"/>
</g>
<g filter="url(#filter9_f_4021_386)">
<ellipse cx="-82.0867" cy="-359.207" rx="367.337" ry="371.793" fill="#FFC1DF"/>
</g>
<g filter="url(#filter10_f_4021_386)">
<path d="M706.367 653.535C846.775 303.215 624.941 -128.066 -10.1448 -247.196C579.127 -6.79345 585.374 391.712 530.63 688.696L706.367 653.535Z" fill="white" fill-opacity="0.85"/>
</g>
<g filter="url(#filter11_f_4021_386)">
<path d="M848.434 488.432C1003.39 272.29 924.063 -60.1339 509.468 -248.389C872.33 15.1587 809.634 288.923 722.261 482.961L848.434 488.432Z" fill="white" fill-opacity="0.85"/>
</g>
<g filter="url(#filter12_f_4021_386)">
<path d="M371.881 638.495C479.771 359.019 299.324 18.9574 -205.958 -69.1546C264.191 115.677 273.192 431.912 232.754 668.185L371.881 638.495Z" fill="url(#paint3_linear_4021_386)" fill-opacity="0.7"/>
</g>
<g filter="url(#filter13_f_4021_386)">
<path d="M155.485 679.957C199.705 383.661 -50.6827 91.2414 -563.008 115.658C-63.834 193.301 -480.532 591.79 -468.369 831.19L155.485 679.957Z" fill="white" fill-opacity="0.8"/>
</g>
</g>
<defs>
<filter id="filter0_f_4021_386" x="482.753" y="-673.663" width="2053.04" height="2049.31" filterUnits="userSpaceOnUse" color-interpolation-filters="sRGB">
<feFlood flood-opacity="0" result="BackgroundImageFix"/>
<feBlend mode="normal" in="SourceGraphic" in2="BackgroundImageFix" result="shape"/>
<feGaussianBlur stdDeviation="178.232" result="effect1_foregroundBlur_4021_386"/>
</filter>
<filter id="filter1_f_4021_386" x="429.913" y="-1074.99" width="1612.29" height="1622.63" filterUnits="userSpaceOnUse" color-interpolation-filters="sRGB">
<feFlood flood-opacity="0" result="BackgroundImageFix"/>
<feBlend mode="normal" in="SourceGraphic" in2="BackgroundImageFix" result="shape"/>
<feGaussianBlur stdDeviation="178.232" result="effect1_foregroundBlur_4021_386"/>
</filter>
<filter id="filter2_f_4021_386" x="723.285" y="-1087.47" width="1447.6" height="1456.52" filterUnits="userSpaceOnUse" color-interpolation-filters="sRGB">
<feFlood flood-opacity="0" result="BackgroundImageFix"/>
<feBlend mode="normal" in="SourceGraphic" in2="BackgroundImageFix" result="shape"/>
<feGaussianBlur stdDeviation="178.232" result="effect1_foregroundBlur_4021_386"/>
</filter>
<filter id="filter3_f_4021_386" x="439.947" y="-425.428" width="1113.43" height="1292.36" filterUnits="userSpaceOnUse" color-interpolation-filters="sRGB">
<feFlood flood-opacity="0" result="BackgroundImageFix"/>
<feBlend mode="normal" in="SourceGraphic" in2="BackgroundImageFix" result="shape"/>
<feGaussianBlur stdDeviation="89.1162" result="effect1_foregroundBlur_4021_386"/>
</filter>
<filter id="filter4_f_4021_386" x="264.775" y="-426.622" width="768.988" height="1093.29" filterUnits="userSpaceOnUse" color-interpolation-filters="sRGB">
<feFlood flood-opacity="0" result="BackgroundImageFix"/>
<feBlend mode="normal" in="SourceGraphic" in2="BackgroundImageFix" result="shape"/>
<feGaussianBlur stdDeviation="89.1162" result="effect1_foregroundBlur_4021_386"/>
</filter>
<filter id="filter5_f_4021_386" x="838.313" y="-193.917" width="857.407" height="986.866" filterUnits="userSpaceOnUse" color-interpolation-filters="sRGB">
<feFlood flood-opacity="0" result="BackgroundImageFix"/>
<feBlend mode="normal" in="SourceGraphic" in2="BackgroundImageFix" result="shape"/>
<feGaussianBlur stdDeviation="62.3814" result="effect1_foregroundBlur_4021_386"/>
</filter>
<filter id="filter6_f_4021_386" x="990.643" y="-99.6505" width="1151.24" height="1144.72" filterUnits="userSpaceOnUse" color-interpolation-filters="sRGB">
<feFlood flood-opacity="0" result="BackgroundImageFix"/>
<feBlend mode="normal" in="SourceGraphic" in2="BackgroundImageFix" result="shape"/>
<feGaussianBlur stdDeviation="106.94" result="effect1_foregroundBlur_4021_386"/>
</filter>
<filter id="filter7_f_4021_386" x="-1170.79" y="-673.663" width="2053.04" height="2049.31" filterUnits="userSpaceOnUse" color-interpolation-filters="sRGB">
<feFlood flood-opacity="0" result="BackgroundImageFix"/>
<feBlend mode="normal" in="SourceGraphic" in2="BackgroundImageFix" result="shape"/>
<feGaussianBlur stdDeviation="178.232" result="effect1_foregroundBlur_4021_386"/>
</filter>
<filter id="filter8_f_4021_386" x="-677.204" y="-1074.99" width="1612.29" height="1622.63" filterUnits="userSpaceOnUse" color-interpolation-filters="sRGB">
<feFlood flood-opacity="0" result="BackgroundImageFix"/>
<feBlend mode="normal" in="SourceGraphic" in2="BackgroundImageFix" result="shape"/>
<feGaussianBlur stdDeviation="178.232" result="effect1_foregroundBlur_4021_386"/>
</filter>
<filter id="filter9_f_4021_386" x="-805.889" y="-1087.47" width="1447.6" height="1456.52" filterUnits="userSpaceOnUse" color-interpolation-filters="sRGB">
<feFlood flood-opacity="0" result="BackgroundImageFix"/>
<feBlend mode="normal" in="SourceGraphic" in2="BackgroundImageFix" result="shape"/>
<feGaussianBlur stdDeviation="178.232" result="effect1_foregroundBlur_4021_386"/>
</filter>
<filter id="filter10_f_4021_386" x="-188.377" y="-425.428" width="1113.43" height="1292.36" filterUnits="userSpaceOnUse" color-interpolation-filters="sRGB">
<feFlood flood-opacity="0" result="BackgroundImageFix"/>
<feBlend mode="normal" in="SourceGraphic" in2="BackgroundImageFix" result="shape"/>
<feGaussianBlur stdDeviation="89.1162" result="effect1_foregroundBlur_4021_386"/>
</filter>
<filter id="filter11_f_4021_386" x="331.236" y="-426.622" width="768.988" height="1093.29" filterUnits="userSpaceOnUse" color-interpolation-filters="sRGB">
<feFlood flood-opacity="0" result="BackgroundImageFix"/>
<feBlend mode="normal" in="SourceGraphic" in2="BackgroundImageFix" result="shape"/>
<feGaussianBlur stdDeviation="89.1162" result="effect1_foregroundBlur_4021_386"/>
</filter>
<filter id="filter12_f_4021_386" x="-330.721" y="-193.917" width="857.407" height="986.866" filterUnits="userSpaceOnUse" color-interpolation-filters="sRGB">
<feFlood flood-opacity="0" result="BackgroundImageFix"/>
<feBlend mode="normal" in="SourceGraphic" in2="BackgroundImageFix" result="shape"/>
<feGaussianBlur stdDeviation="62.3814" result="effect1_foregroundBlur_4021_386"/>
</filter>
<filter id="filter13_f_4021_386" x="-776.887" y="-99.6505" width="1151.24" height="1144.72" filterUnits="userSpaceOnUse" color-interpolation-filters="sRGB">
<feFlood flood-opacity="0" result="BackgroundImageFix"/>
<feBlend mode="normal" in="SourceGraphic" in2="BackgroundImageFix" result="shape"/>
<feGaussianBlur stdDeviation="106.94" result="effect1_foregroundBlur_4021_386"/>
</filter>
<linearGradient id="paint0_linear_4021_386" x1="490.852" y1="1021.09" x2="664.985" y2="1346.37" gradientUnits="userSpaceOnUse">
<stop stop-color="white"/>
<stop offset="1" stop-color="#391DE8"/>
</linearGradient>
<linearGradient id="paint1_linear_4021_386" x1="1063.17" y1="414.585" x2="1975.44" y2="-437.301" gradientUnits="userSpaceOnUse">
<stop stop-color="white"/>
<stop offset="1" stop-color="white" stop-opacity="0"/>
</linearGradient>
<linearGradient id="paint2_linear_4021_386" x1="-318.404" y1="698.904" x2="-144.271" y2="1024.18" gradientUnits="userSpaceOnUse">
<stop stop-color="white"/>
<stop offset="1" stop-color="#391DE8"/>
</linearGradient>
<linearGradient id="paint3_linear_4021_386" x1="301.831" y1="414.585" x2="-610.438" y2="-437.301" gradientUnits="userSpaceOnUse">
<stop stop-color="white"/>
<stop offset="1" stop-color="white" stop-opacity="0"/>
</linearGradient>
<clipPath id="clip0_4021_386">
<rect width="1440" height="768" fill="white"/>
</clipPath>
</defs>
</svg>
